<svg width="1500" height="1500" xmlns="http://www.w3.org/2000/svg">
 <style type="text/css">.st0{fill:#FFFFFF;}</style>
 <g>
  <title>Layer 1</title>
  <g id="svg_16">
   <path id="svg_17" d="m1438.66577,456.8c-37.7,-89.1 -91.6,-169 -160.3,-237.7c-68.7,-68.7 -148.7,-122.6 -237.7,-160.3c-92.2,-39 -190.1,-58.8 -291.1,-58.8c-101,0 -198.9,19.8 -291.1,58.8c-89.1,37.7 -169,91.6 -237.7,160.3c-68.7,68.7 -122.6,148.7 -160.3,237.7c-39,92.2 -58.8,190.1 -58.8,291.1s19.8,198.9 58.8,291.1c37.7,89.1 91.6,169 160.3,237.7s148.7,122.6 237.7,160.3c92.2,39 190.1,58.8 291.1,58.8c101,0 198.9,-19.8 291.1,-58.8c89.1,-37.7 169,-91.6 237.7,-160.3s122.6,-148.7 160.3,-237.7c39,-92.2 58.8,-190.1 58.8,-291.1s-19.8,-198.9 -58.8,-291.1zm22.5,188.4l-47.6,-35.2l-41.9,56.5l-49.4,-36.6l-0.1,0.2c-7.7,-37.7 -19.1,-74.5 -34.2,-110.2c-5,-11.8 -10.4,-23.3 -16.1,-34.7l28.9,-69.7l49.8,-2.3l7.5,-4.5l-1,-45.1c21,33.2 39.3,68.1 54.8,104.6c24.2,56.9 40.6,116.1 49.3,177zm-314.4,499.2c-51.6,51.6 -111.6,92.1 -178.5,120.4c-69.2,29.3 -142.8,44.1 -218.6,44.1s-149.4,-14.8 -218.6,-44.1c-66.9,-28.3 -126.9,-68.8 -178.5,-120.4s-92.1,-111.6 -120.4,-178.5c-29.3,-69.2 -44.1,-142.8 -44.1,-218.6c0,-75.8 14.8,-149.4 44.1,-218.6c28.3,-66.9 68.8,-126.9 120.4,-178.5c51.6,-51.6 111.6,-92.1 178.5,-120.4c69.2,-29.3 142.8,-44.1 218.6,-44.1s149.4,14.8 218.6,44.1c66.9,28.3 126.9,68.8 178.5,120.4c51.6,51.6 92.1,111.6 120.4,178.5c29.3,69.2 44.1,142.8 44.1,218.6c0,75.8 -14.8,149.4 -44.1,218.6c-28.4,66.9 -68.8,127 -120.4,178.5zm-295.6,301.8l-42.1,-22.8l36.1,-30.6l6,53.4zm-516.7,-151.2l45.7,-20.6l1.5,-73.2c13.4,10.9 27.2,21.2 41.5,30.8l-73.6,97.7l-15.1,-34.7zm-184.3,-223.6l0.3,-0.5l-42.7,-26.2l108.3,-58.7c12,26.7 25.8,52.3 41.5,76.8l-108.3,58.7l1.4,-50l-0.5,-0.1zm-18.1,44.7c-10.4,-17.5 -20.1,-35.4 -29,-53.7l30,18.4l-1,35.3zm269.3,-968l44,65.7l-48.7,-15l4.7,-50.7zm-24,63.6l-4.6,50.7l-44,-65.7l48.6,15zm-60.8,-37.7c21.9,-16.6 44.8,-31.9 68.4,-45.8l-6,65.1l-62.4,-19.3zm78.6,43.2l67.8,20.9c-26,14.6 -50.8,31.2 -74.2,49.7l6.4,-70.6zm218.9,-117.2l-7.7,-44.3l40.1,16.4l-32.4,27.9zm3,17.4l39.9,15.3l-32.1,29l-7.8,-44.3zm299.1,69.7c-18.9,-5.6 -38.1,-10.3 -57.5,-13.9l35.8,-21.7l21.7,35.6zm-41.1,-101.1l41.4,-25.1l25.2,41.3l-41.3,25.2l-25.3,-41.4zm359.5,335.3l104.9,-62.9l1,37.8l-50.1,1.9l-28.8,67.3c-8.4,-15.1 -17.3,-29.8 -27,-44.1zm86.7,447.3l21,36.2l-36.2,21c6.1,-18.8 11.2,-37.9 15.2,-57.2zm18.7,-531.1l-115.4,69.3c-18.5,-25.7 -39.1,-50 -61.8,-72.7c-23.7,-23.7 -49.1,-45.1 -76,-64.2l41.5,-55.2l19.6,46.1l16.2,-6.9l-23.6,-55.4l19.6,-26l19.6,46.1l16.2,-6.9l-17.6,-41.3c28.1,20.9 54.7,43.9 79.8,69c30.3,30.6 57.6,63.3 81.9,98.1zm-187,-184.8l-80.8,107.4c-30,-19.9 -61.7,-37 -95.2,-51.1c-11.1,-4.7 -22.3,-9 -33.6,-13l-34.1,-53.7l56.3,-34.4l-33.9,-55.6c33.2,8.7 65.8,19.7 97.6,33.2c43.7,18.5 85,40.9 123.7,67.2zm-246.3,-106.5l-55.7,33.8l34.3,56.4l-53.2,32.3c-27.1,-3.8 -54.7,-5.8 -82.5,-5.8c-38.5,0 -76.4,3.7 -113.5,11l45.5,-41.2l-1.5,-8.7l-49.6,-18.1l40.5,-33.8l-1.5,-8.7l-53.9,-22.1c43.8,-8.3 88.6,-12.4 133.9,-12.4c53.5,0.2 106,5.9 157.2,17.3zm-436.9,39.3c38.1,-16.1 77.3,-28.8 117.2,-38.1l23.1,132.3c-29.9,7.3 -59.3,17.1 -87.9,29.2c-15.3,6.5 -30.2,13.6 -44.7,21.2l-75,-111.9c21.8,-12 44.2,-22.9 67.3,-32.7zm-228.5,154.1c18.9,-18.9 38.8,-36.7 59.4,-53.2l75,111.9c-13.6,11.3 -26.7,23.3 -39.3,35.9c-33.7,33.7 -62.8,70.8 -87.1,111l-102.3,-66.1l44.6,-22.8l-8,-15.6l-40.2,20.6c28,-43.8 60.7,-84.5 97.9,-121.7zm-154,228.5c11.8,-27.9 25.2,-54.8 40.3,-80.7l113,73c-10.8,19.2 -20.6,39 -29.3,59.5c-10.2,24 -18.7,48.6 -25.5,73.5l-130.3,-33.4c8.5,-31.2 19.1,-61.8 31.8,-91.9zm-36.1,109l130.3,33.4c-10.7,44.5 -16.1,90.3 -16.1,136.9c0,22.5 1.3,44.8 3.8,66.8l-50.4,3.9l-44.1,-57.7l-8.8,0.7l-31.9,54.5c-2.1,-22.3 -3.1,-44.8 -3.1,-67.5c-0.1,-58.4 6.7,-115.5 20.3,-171zm50,242.2l-53.6,4.1l24.3,-41.3l29.3,37.2zm-64.3,22.6l134.5,-10.3c6.8,47.5 19.5,93.7 37.9,138.3l-119.1,64.5c-1,-2.2 -1.9,-4.5 -2.9,-6.7c-25.3,-59.7 -42.1,-121.9 -50.4,-185.8zm111.5,300.2l119.2,-64.6c20.3,29.5 43.3,57.2 68.9,82.9c9.1,9.1 18.5,17.9 28.2,26.4l-0.6,75.4l-45.3,20.9l-5.3,7l18.4,42.9c-32.1,-22.9 -62.3,-48.6 -90.5,-76.8c-35.1,-35.1 -66.2,-73.2 -93,-114.1zm208.1,207.8l81.5,-108.2c26.7,16.9 54.8,31.6 84.2,44c30.9,13.1 62.6,23.3 94.9,30.9l-17.6,66.8l-35.5,-35.3l-12.4,12.5l42.7,42.3l-8.3,31.4l-35.5,-35.3l-12.4,12.5l33.3,33.1c-34.6,-8.8 -68.5,-20.3 -101.7,-34.3c-39.6,-16.8 -77.5,-37 -113.2,-60.4zm243.3,101.2l34.5,-130.9c37.7,7.5 76.2,11.3 115.3,11.3c29.6,0 59,-2.2 87.8,-6.5l5.7,50.2l-56.1,46.1l1,8.7l56.4,30.4c-31.2,4.1 -62.9,6.2 -94.8,6.2c-50.8,0.1 -100.9,-5.1 -149.8,-15.5zm429.6,-40.8c-51.4,21.8 -104.8,37.3 -159.4,46.5l-15.2,-134.6c41.9,-7.6 82.7,-19.8 122.3,-36.5c17.2,-7.3 34,-15.4 50.3,-24.2l55.4,98.9l-38.9,-10.9l-4.7,16.9l51.6,14.5c-19.9,10.6 -40.4,20.5 -61.4,29.4zm228.5,-154.1c-44.2,44.2 -93.2,82 -146.5,113l14.5,-51.6l-16.9,-4.7l-10.9,38.8l-55.4,-98.8c43.7,-25.3 83.9,-56.2 120.1,-92.4c20.7,-20.7 39.6,-42.7 56.8,-65.9l20.9,16.5l9.1,77.5l17.5,-2l-7,-60.1l21.9,17.3l9,77.2c-10.7,12 -21.6,23.8 -33.1,35.2zm43.5,-97l24.1,19.1c-6.2,8.2 -12.5,16.3 -19.1,24.3l-5,-43.4zm110.6,-131.5c-20.5,48.4 -45.9,94 -76.1,136.4l-106,-83.9c22.9,-33 42.4,-68.2 58.1,-105.5c3,-7.2 5.9,-14.5 8.7,-21.8l54.4,-32.9l33.1,57l57.3,-33.2c-8.1,28.5 -17.9,56.5 -29.5,83.9zm-45.7,-116.4l41.8,-24.3l24.2,41.9l-41.8,24.3l-24.2,-41.9zm81.4,9l-33.2,-57.3l-57.1,33.1l-31.2,-53.9c5.1,-31.1 7.6,-62.8 7.6,-94.9c0,-31.2 -2.4,-62 -7.2,-92.3l48.8,36.1l41.9,-56.6l47,34.8c2.8,25.9 4.2,52.2 4.2,78.6c0,58.7 -7,116.4 -20.8,172.4z" class="st0"/>
   <g id="svg_18">
    <path id="svg_19" d="m740.86577,916.3l-8.2,-11.5l-16.3,-23l-2.3,-3.2l-3.8,-0.9l-17.5,-4.4l-4.4,-1.1c-0.7,-0.2 -1.3,-1 -2.2,-0.4l-2.6,1.2c-1.8,0.8 -3.5,1.8 -5.3,2.8c-1.8,1 -3.6,2.1 -5.5,3.4c1,2 2.1,3.8 3.3,5.5c1.1,1.8 2.2,3.4 3.4,5l1.7,2.3c0.5,1 1.4,0.5 2.2,0.6l4.4,1.1l13.7,3.4l14.1,19.9l8.2,11.5c0.4,0.5 0.7,1 0.8,1.6c0.2,0.6 1.2,0.6 1.9,0.8l4.4,1.2c3.1,0.7 6.2,1.4 9.6,1.8c0.7,-3.4 1.1,-6.6 1.4,-9.7l0.3,-4.6c0,-0.7 0.3,-1.7 -0.2,-2c-0.4,-0.4 -0.8,-0.8 -1.1,-1.3z" class="st0"/>
    <path id="svg_20" d="m579.56577,853.8l2.4,-45.1l-43.9,46.3l7.5,69.9l48.7,-45.7l-14.7,-25.4zm-30.5,4.9l20.9,-22l-1.1,19.7l12.1,20.8l-27.2,25.5l-4.7,-44z" class="st0"/>
    <path id="svg_21" d="m480.26577,873.5l-3.3,25.6c-0.8,6.6 -1.9,13.2 -2.3,19.9c0.4,6.8 1.4,13.7 2.9,20.7c3.4,-6.3 6.4,-12.6 8.7,-19c1.5,-6.5 2.3,-13.2 3.5,-19.8l6.6,-39.6l2.3,-13.9l-12.8,6.5l-41.4,21c9.1,-18.4 18.2,-36.9 27.3,-55.4l38,-78.3l1.6,-3.3l-1.1,-3.6c-3.6,-11.4 -7.5,-22.7 -11.2,-34.1c6.3,-15.1 12.5,-30.3 18.7,-45.4c3.3,-8.1 6.7,-16.2 9.8,-24.4c1.5,-4.1 2,-8.7 2.5,-13.2c0.2,-2.2 0.4,-4.4 0.5,-6.6l11.6,4.6c3.1,1.1 6,2.8 9.1,3.8c3.1,1 6.4,1.7 9.6,2.5l3.7,1l1.4,-0.4c10.3,-3.2 20.5,-6.2 30.8,-9.6c10.2,-3.3 20.5,-6.7 30.7,-10.3c-10.8,-0.1 -21.6,0 -32.3,0.2c-9.5,0.1 -18.9,0.5 -28.3,0.7c-2.5,-1.4 -5,-2.9 -7.6,-4.1c-3,-1.3 -6.2,-2.1 -9.3,-3.4l-18.4,-7.3l-32.6,-12.9l-48.8,-118l69,-6.5l92.8,49.8l5,2.7l4.9,-2.6c2,-1.1 4.1,-2.1 6.2,-3c2.1,-1 4.1,-2 6.1,-3.3l10.7,-7.5c8.4,-1.1 16.7,-2.3 25,-3.6c4.7,-0.7 9.5,-1.4 14.2,-2.2c4.7,-0.8 9.5,-1.6 14.2,-2.5c-4.7,-0.9 -9.5,-1.7 -14.2,-2.5c-4.7,-0.8 -9.5,-1.5 -14.2,-2.2c-9.5,-1.5 -18.9,-2.8 -28.4,-4.1l-1,-0.1l-3.1,1.1l-13.1,4.8c-2.2,0.8 -4.2,1.9 -6.2,3.1c-0.4,0.2 -0.8,0.5 -1.3,0.7l-90.6,-48.6l-2.8,-1.5l-3.2,0.3l-86.3,8.2l-14.2,1.3l5.4,13.2l56,135.3l1.7,4.1l4.1,1.6l36.7,14.6l1,0.4c-1.5,1.6 -2.9,3.2 -4.3,4.9c-2.9,3.5 -5.8,7.1 -7.8,11c-3.7,7.9 -7.1,16 -10.7,24c-7.1,16 -14.2,32.1 -21.1,48.2l-1.3,3.1l1,3.3c3.6,11.3 7.1,22.6 10.8,33.8l-36.1,75c-12.4,26.2 -24.9,52.4 -37.1,78.7l-10.9,23.4l22.4,-12.3l50.8,-28z" class="st0"/>
    <path id="svg_22" d="m820.96577,875.7c-1.8,-1 -3.6,-2 -5.3,-2.8l-2.6,-1.2c-0.9,-0.6 -1.5,0.3 -2.2,0.4l-4.4,1.1l-17.5,4.4l-3.8,0.9l-2.3,3.2l-16.3,23l-8.2,11.5c-0.3,0.5 -0.7,0.9 -1.2,1.3c-0.5,0.4 -0.2,1.3 -0.2,2l0.3,4.6c0.3,3.1 0.7,6.3 1.4,9.7c3.4,-0.4 6.6,-1.1 9.6,-1.8l4.4,-1.2c0.7,-0.2 1.7,-0.3 1.9,-0.8c0.2,-0.6 0.5,-1.1 0.8,-1.6l8.2,-11.5l14.1,-19.9l13.7,-3.4l4.4,-1.1c0.7,-0.2 1.6,0.3 2.2,-0.6l1.7,-2.3c1.2,-1.6 2.3,-3.2 3.4,-5c1.1,-1.7 2.2,-3.5 3.3,-5.5c-1.8,-1.3 -3.7,-2.4 -5.4,-3.4z" class="st0"/>
    <path id="svg_23" d="m917.16577,808.7l2.4,45.1l-14.7,25.3l48.7,45.7l7.5,-69.9l-43.9,-46.2zm28.2,94l-27.2,-25.5l12.1,-20.8l-1.1,-19.7l20.9,22l-4.7,44z" class="st0"/>
    <path id="svg_24" d="m940.16577,649.8c-2,3 -3.9,6.1 -5.7,9.1c-1.5,-0.7 -3.1,-1.2 -4.6,-1.8l-10.1,-4.4l-20.3,-8.7l-4.1,-1.8l-3.6,2.7l-55,40.4c-16.3,12 -32.8,23.7 -49.2,35.5l-23.6,-30l3.7,-12.5c0.4,-1.4 0.8,-2.7 1.3,-4.1c0.5,-1.3 1,-2.7 1.3,-4.1l1.1,-8.6c1.4,-11.5 2.7,-23.1 3.5,-34.7c-5.7,10.2 -11,20.6 -16.1,31l-3.8,7.8c-0.6,1.3 -0.8,2.7 -1.2,4.1c-0.3,1.4 -0.8,2.8 -1.2,4.1l-2.7,9.2l-2.7,-9.2c-0.4,-1.4 -0.8,-2.7 -1.2,-4.1c-0.3,-1.4 -0.6,-2.8 -1.2,-4.1l-3.8,-7.8c-5.1,-10.4 -10.4,-20.8 -16.1,-31c0.9,11.7 2.1,23.2 3.5,34.7l1.1,8.6c0.2,1.4 0.8,2.7 1.3,4.1c0.5,1.3 0.9,2.7 1.3,4.1l3.7,12.5l-23.6,30c-16.4,-11.8 -32.9,-23.5 -49.2,-35.5l-55,-40.4l-3.6,-2.7l-4.1,1.8l-20.3,8.7l-10.1,4.4c-1.5,0.7 -3.1,1.1 -4.6,1.8c-1.9,-3.1 -3.7,-6.1 -5.7,-9.1c-3.4,-5.4 -6.9,-10.7 -10.6,-16c1,6.4 2.1,12.7 3.4,18.9c1.1,6.3 2.6,12.5 3.9,18.7l1.3,6.1l8.3,-2.2c1.8,-0.5 3.7,-0.8 5.4,-1.4c1.7,-0.6 3.3,-1.6 5,-2.3l10.1,-4.4l16.1,-6.9l22,16.1c-1.1,0.5 -2.2,1 -2.6,1.8c-0.7,1.5 -1.2,3.2 -1.8,4.7c-1.2,3.2 -2.4,6.3 -3.4,9.5c-2.2,6.4 -4.2,12.8 -6.2,19.3l-2.3,7.7l7.8,0.9l16.9,1.9c5.6,0.7 11.3,1.1 17,1.7l39.6,4.5l7.3,0.6c4.2,3 8.5,6.1 12.7,9.1l6.1,4.4l4.7,-6l30,-38.1l30,38.1l4.7,6l6.1,-4.4c4.2,-3.1 8.5,-6.1 12.7,-9.1l7.3,-0.6l39.6,-4.5c5.7,-0.6 11.3,-1 17,-1.7l16.9,-1.9l7.8,-0.9l-2.3,-7.7c-1.9,-6.5 -3.9,-12.9 -6.2,-19.3c-1.1,-3.2 -2.3,-6.4 -3.4,-9.5c-0.6,-1.6 -1.1,-3.2 -1.8,-4.7c-0.5,-0.7 -1.5,-1.2 -2.6,-1.8l22,-16.1l16.1,6.9l10.1,4.4c1.7,0.7 3.3,1.7 5,2.3c1.7,0.6 3.6,0.9 5.4,1.4l8.3,2.2l1.3,-6.1c1.3,-6.2 2.8,-12.4 3.9,-18.7c1.2,-6.3 2.4,-12.6 3.4,-18.9c-4.5,5.2 -8,10.6 -11.4,16zm-289.4,62.5c-5.6,-0.9 -11.2,-2 -16.8,-2.8l-9,-1.3c1.2,-4 2.4,-7.9 3.5,-11.9c0.9,-3.2 1.8,-6.5 2.6,-9.8c0.3,-1.4 0.7,-2.7 1,-4.1l21.3,15.7c8.6,6.3 17.2,12.5 25.9,18.8l-28.5,-4.6zm214.5,-2.7c-5.6,0.8 -11.2,1.8 -16.8,2.8l-28.5,4.5c8.7,-6.2 17.3,-12.4 25.9,-18.8l21.3,-15.7c0.3,1.4 0.7,2.7 1,4.1c0.8,3.3 1.7,6.5 2.6,9.8c1.1,4 2.3,8 3.5,11.9l-9,1.4z" class="st0"/>
    <path id="svg_25" d="m1024.96577,995.3l-47.7,-9.5l-97.7,-95.6l5.6,-17.3l-135.5,-98.5l-135.5,98.5l5.6,17.3l-97.7,95.6l-47.7,9.5l-203,-91.1l134.7,119.9l87,42.3l66.4,-7.5l92,-71.6l15,46.2l166.6,0l15,-46.2l92,71.6l66.4,7.5l87,-42.3l134.7,-119.9l-203.2,91.1zm-472,48.4l-57.3,6.5l-80.9,-39.3l-56.6,-50.4l114.2,51.2l57.3,-11.5l95.5,-93.4l21,64.5l-93.2,72.4zm267.4,-27.4l-141.5,0l-44.5,-137l115.3,-83.8l115.3,83.8l-44.6,137zm264,-5.4l-80.9,39.3l-57.3,-6.5l-93.1,-72.4l21,-64.5l95.5,93.4l57.3,11.5l114.2,-51.2l-56.7,50.4z" class="st0"/>
    <path id="svg_26" d="m829.56577,483.3c8.3,1.3 16.7,2.5 25,3.6l10.7,7.5c1.9,1.3 4,2.4 6.1,3.3c2.1,0.9 4.2,1.9 6.2,3l4.9,2.6l5,-2.7l92.8,-49.8l69,6.5l-48.8,118l-32.6,12.9l-18.4,7.3c-3,1.3 -6.3,2.1 -9.3,3.4c-2.6,1.2 -5.1,2.7 -7.6,4.1c-9.4,-0.3 -18.8,-0.7 -28.3,-0.7c-10.8,-0.2 -21.5,-0.3 -32.3,-0.2c10.2,3.6 20.4,7 30.7,10.3c10.2,3.4 20.5,6.4 30.8,9.6l1.4,0.4l3.7,-1c3.2,-0.9 6.5,-1.5 9.6,-2.5c3.1,-1.1 6,-2.7 9.1,-3.8l11.6,-4.6c0.1,2.2 0.3,4.5 0.5,6.6c0.6,4.5 1,9.1 2.5,13.2c3.1,8.2 6.6,16.3 9.8,24.4c6.2,15.2 12.4,30.3 18.7,45.4c-3.8,11.4 -7.6,22.7 -11.2,34.1l-1.1,3.6l1.6,3.3l38,78.3c9.1,18.5 18.2,36.9 27.3,55.4l-41.4,-21l-12.8,-6.5l2.3,13.9l6.6,39.6c1.2,6.6 2,13.2 3.5,19.8c2.4,6.4 5.3,12.7 8.7,19c1.5,-7 2.5,-13.9 2.9,-20.7c-0.5,-6.7 -1.6,-13.3 -2.3,-19.9l-3.3,-25.6l50.7,27.9l22.4,12.3l-10.9,-23.4c-12.2,-26.3 -24.7,-52.5 -37.1,-78.7l-36.1,-75c3.7,-11.2 7.2,-22.5 10.8,-33.8l1,-3.3l-1.3,-3.1c-6.9,-16.1 -14,-32.1 -21.1,-48.2c-3.6,-8 -7,-16.1 -10.7,-24c-2,-3.9 -4.9,-7.4 -7.8,-11c-1.4,-1.6 -2.8,-3.3 -4.3,-4.9l1,-0.4l36.7,-14.6l4.1,-1.6l1.7,-4.1l56,-135.3l5.4,-13.2l-14.2,-1.3l-86.3,-8.2l-3.2,-0.3l-2.8,1.5l-90.5,48.6c-0.4,-0.2 -0.8,-0.5 -1.3,-0.7c-2,-1.2 -4,-2.3 -6.2,-3.1l-13.1,-4.8l-3.1,-1.1l-1,0.1c-9.5,1.3 -18.9,2.6 -28.4,4.1c-4.7,0.7 -9.5,1.4 -14.2,2.2c-4.7,0.8 -9.5,1.6 -14.2,2.5c4.7,0.9 9.5,1.7 14.2,2.5c4.7,1 9.4,1.6 14.2,2.3z" class="st0"/>
    <polygon id="svg_27" points="659.265625,508.8000167608261 687.765869140625,508.8000167608261 709.165771484375,496.3999923467636 749.565673828125,472.69998013973236 790.06591796875,496.3999923467636 811.4658203125,508.8000167608261 839.9658203125,508.8000167608261 797.765869140625,483.3000167608261 766.265625,464.3999923467636 780.9658203125,455.60000455379486 752.06591796875,455.69998013973236 749.565673828125,455.69998013973236 747.165771484375,455.69998013973236 718.265625,455.60000455379486 732.9658203125,464.3999923467636 701.4658203125,483.3000167608261 " class="st0"/>
   </g>
  </g>
 </g>
</svg>